<?xml version="1.0" encoding="utf-8"?>
<!-- Generator: Adobe Illustrator 16.0.0, SVG Export Plug-In . SVG Version: 6.00 Build 0)  -->
<!DOCTYPE svg PUBLIC "-//W3C//DTD SVG 1.1//EN" "http://www.w3.org/Graphics/SVG/1.1/DTD/svg11.dtd">
<svg version="1.1" id="Layer_1" xmlns="http://www.w3.org/2000/svg" xmlns:xlink="http://www.w3.org/1999/xlink" x="0px" y="0px"
	 width="66px" height="66px" viewBox="0 0 66 66" enable-background="new 0 0 66 66" xml:space="preserve">
<g>
	<circle fill="#EDE7D9" cx="33" cy="32.999" r="28.146"/>
	<path fill="#DBD2C1" d="M33,4.854c15.545,0,28.146,12.6,28.146,28.145S48.545,61.146,33,61.146"/>
	<g>
		<path fill="#4A575E" d="M37.177,18.651c0,2.783-2.248,5.039-5.028,5.039c-2.79,0-5.041-2.256-5.041-5.039s2.251-5.037,5.041-5.037
			C34.929,13.614,37.177,15.868,37.177,18.651z"/>
		<path fill="#4A575E" d="M33.003,3.349c-16.382,0-29.654,13.273-29.654,29.65c0,16.373,13.272,29.652,29.654,29.652
			c16.366,0,29.648-13.279,29.648-29.652C62.651,16.622,49.369,3.349,33.003,3.349z M32.148,53.591c-2.79,0-5.041-2.26-5.041-5.041
			s2.251-5.037,5.041-5.037c2.78,0,5.028,2.256,5.028,5.037S34.929,53.591,32.148,53.591z M33.003,32.995
			c-6.738,2.096-13.477,4.197-13.477,13.48c0,7.441,6.035,13.479,13.477,13.479c-14.887,0-26.964-12.07-26.964-26.955
			c0-14.887,12.077-26.957,26.964-26.957c7.443,0,13.478,6.035,13.48,13.477C46.483,28.804,39.741,30.899,33.003,32.995z"/>
	</g>
	<path fill="#27333A" d="M33,3.349v2.695c7,0.012,13.454,6.041,13.457,13.475C46.457,28.794,40,30.894,33,32.989v10.611
		c2,0.418,4.15,2.469,4.15,4.949S35,53.085,33,53.503v9.148c16-0.014,29.625-13.287,29.625-29.652C62.625,16.63,49,3.362,33,3.349z"
		/>
	<path fill="#27333A" d="M33,13.706v9.893c2-0.424,4.13-2.473,4.13-4.947S35,14.13,33,13.706z"/>
</g>
</svg>
